<?xml version="1.0" encoding="UTF-8" standalone="no"?><!DOCTYPE svg PUBLIC "-//W3C//DTD SVG 1.1//EN" "http://www.w3.org/Graphics/SVG/1.1/DTD/svg11.dtd"><svg width="100%" height="100%" viewBox="0 0 288 288" version="1.1" xmlns="http://www.w3.org/2000/svg" xmlns:xlink="http://www.w3.org/1999/xlink" xml:space="preserve" xmlns:serif="http://www.serif.com/" style="fill-rule:evenodd;clip-rule:evenodd;stroke-linecap:round;stroke-linejoin:round;stroke-miterlimit:1.5;"><g><path d="M192.615,58.226c4.95,-1.857 10.577,-1.842 15.646,0.035c-1.183,-11.048 12.187,-12.626 26.55,-6.129c16.963,7.674 31.595,26.735 40.061,35.31c-1.849,4.228 -3.581,9.995 -5.242,16.638c9.786,12.851 15.266,27.375 15.18,42.727c-0.29,51.705 -63.621,93.328 -141.336,92.892c-77.715,-0.437 -140.574,-42.769 -140.284,-94.473c0.122,-21.779 12.441,-42.088 31.295,-57.899c1.563,-13.798 0.996,-24.365 10.524,-26.398c5.034,-1.075 14.015,1.603 23.838,5.631c21.893,-9.151 47.865,-14.383 75.679,-14.227c16.895,0.095 33.088,2.17 48.089,5.893Z" style="fill:#fff;stroke:#fff;stroke-width:2px;"/><path id="Bear3" d="M230.371,88.679c0.164,0.616 0.377,1.249 0.645,1.897c0.042,0.058 0.087,0.114 0.134,0.166c0.152,0.172 0.219,0.39 0.205,0.602c0.055,0.119 0.112,0.236 0.17,0.354l-0.299,0.034c-0.039,0.061 -0.088,0.118 -0.145,0.169c-0.133,0.119 -0.294,0.186 -0.459,0.202c-0.096,0.06 -0.205,0.1 -0.324,0.116c-25.739,3.38 -43.852,-6.829 -51.262,-12.799c-12.127,-0.467 -15.318,10.946 -13.594,16.118c0.071,0.214 0.051,0.449 -0.056,0.648c-0.107,0.199 -0.292,0.345 -0.51,0.404c-0.214,0.058 -0.418,0.256 -0.639,0.515c-0.312,0.366 -0.617,0.861 -0.899,1.444c-1.388,2.864 -2.248,7.814 -0.4,11.19c0.044,0.08 0.073,0.163 0.087,0.248c0.485,0.049 0.983,0.116 1.492,0.2c2.046,-0.218 4.092,-0.387 6.131,-0.508c-0.026,-0.082 -0.039,-0.169 -0.038,-0.259c0.139,-8.824 3.958,-13.141 8.248,-14.147c6.456,-1.513 14.411,4.511 13.707,14.803c1.295,0.125 2.565,0.268 3.806,0.426c0.284,-9.146 4.451,-13.197 8.851,-13.702c6.703,-0.77 14.525,6.822 11.348,18.243c-0.034,0.123 -0.094,0.231 -0.173,0.321c1.214,0.531 2.273,1.084 3.16,1.653c0.382,0.244 0.493,0.752 0.249,1.134c-0.244,0.381 -0.752,0.492 -1.134,0.248c-8.176,-5.237 -31.238,-9.032 -54.092,-6.567c-0.075,0.008 -0.151,0.006 -0.225,-0.007c-2.298,-0.392 -4.326,-0.418 -5.981,-0.086c-1.519,0.304 -2.708,0.904 -3.445,1.831c-0.714,0.897 -0.975,2.091 -0.746,3.549c0.256,1.631 1.106,3.557 2.623,5.77c0.098,0.143 0.148,0.313 0.144,0.487c-0.265,9.751 3.627,14.754 9.404,14.201l-0.029,-0.045c-1.627,-2.593 -2.123,-5.947 -0.898,-10.022c0.131,-0.434 0.589,-0.681 1.023,-0.55c0.434,0.13 0.68,0.588 0.55,1.022c-1.06,3.527 -0.693,6.434 0.716,8.678c1.419,2.261 3.869,3.836 6.863,4.729c9.18,2.734 23.417,-0.915 30.54,-11.938c-1.222,-0.455 -2.455,-1.133 -3.698,-2.116c-0.355,-0.281 -0.415,-0.798 -0.134,-1.153c0.281,-0.355 0.797,-0.416 1.153,-0.135c4.138,3.273 8.181,2.724 12.036,2.241c0.449,-0.057 0.86,0.262 0.916,0.712c0.057,0.449 -0.263,0.86 -0.712,0.916c-2.578,0.324 -5.225,0.633 -7.927,0.021c-6.459,10.389 -18.825,14.75 -28.414,13.829c3.246,5.434 7.159,8.749 11.758,9.902c4.74,1.19 10.173,0.085 16.283,-3.216c0.368,-0.199 0.826,-0.09 1.065,0.253c2.023,2.912 6.333,4.681 10.802,4.891c4.477,0.209 9.151,-1.157 11.904,-4.691c0.184,-0.237 0.483,-0.354 0.779,-0.306c4.942,0.802 7.916,0.551 9.811,-0.824c1.873,-1.358 2.619,-3.772 3.271,-7.073c0.054,-0.274 0.244,-0.502 0.504,-0.604c5.932,-2.339 9.189,-5.234 10.28,-8.248c1.04,-2.874 0.011,-5.789 -2.401,-8.238c-0.247,-0.251 -0.307,-0.632 -0.148,-0.946c0.16,-0.315 0.502,-0.493 0.85,-0.442c0.918,0.132 1.776,-0.329 2.522,-1.116c0.871,-0.919 1.576,-2.277 2.027,-3.854c1.386,-4.838 0.361,-11.75 -6.142,-14.951c-0.29,-0.143 -0.47,-0.443 -0.458,-0.767c0.012,-0.323 0.213,-0.609 0.513,-0.73c4.314,-1.744 6.534,-4.03 7.026,-6.567c0.488,-2.515 -0.734,-5.187 -3.049,-7.641c-0.219,-0.231 -0.283,-0.569 -0.166,-0.865c1.798,-4.549 0.41,-9.362 -3.218,-11.316c-2.452,-1.321 -5.877,-1.298 -9.958,0.866c-0.157,0.084 -0.336,0.114 -0.512,0.086c-7.294,-1.148 -10.764,4.544 -11.291,9.073c-0.093,0.798 -0.102,1.561 -0.02,2.237Zm-15.41,26.093c0.003,-0.056 0.012,-0.112 0.028,-0.169c2.779,-9.992 -3.715,-16.846 -9.58,-16.172c-3.862,0.443 -7.198,4.21 -7.402,12.29c6.775,0.954 12.64,2.376 16.954,4.051Zm-59.854,-3.509c-0.581,0.363 -1.072,0.793 -1.463,1.285c-0.394,0.496 -0.698,1.062 -0.896,1.696c0.182,-1.42 0.963,-2.418 2.359,-2.981Zm35.822,-1.336c0.592,-8.933 -6.086,-14.37 -11.696,-13.055c-3.768,0.883 -6.859,4.824 -6.981,12.574c-0.001,0.05 -0.006,0.099 -0.016,0.146c6.46,-0.312 12.802,-0.163 18.693,0.335Zm64.184,-7.041c-0.443,0.265 -0.916,0.521 -1.422,0.768c0.046,0.03 0.092,0.06 0.138,0.09c0.463,-0.277 0.89,-0.563 1.284,-0.858Zm-73.91,-35.732c-0.245,0.001 -0.487,-0.108 -0.649,-0.316c-3.014,-3.887 -9.82,-3.935 -9.573,1.525c0.01,0.226 -0.073,0.445 -0.23,0.607c-0.156,0.163 -0.373,0.253 -0.598,0.251c-1.968,-0.02 -3.089,0.356 -3.668,1.141c-0.423,0.574 -0.535,1.328 -0.548,2.171c-0.015,1.003 0.128,2.122 0.243,3.271c0.03,0.301 -0.109,0.595 -0.361,0.764c-1.212,0.81 -1.806,1.841 -1.909,2.89c-0.156,1.58 0.765,3.159 2.15,3.964c0.074,0.043 0.139,0.097 0.194,0.158c2.338,-3.3 6.219,-5.821 12.047,-5.817c0.27,-4.127 1.309,-7.662 2.902,-10.609Z" style="fill:#774c29;"/><path id="Bear2" d="M131.396,160.43c-2.754,0.061 -5.259,0.543 -7.508,1.46c-0.124,0.105 -0.272,0.167 -0.425,0.183c-5.275,2.308 -9.096,7.078 -11.371,14.476c-0.03,0.097 -0.077,0.185 -0.138,0.26c1.187,0.291 2.403,0.611 3.645,0.959c2.887,-8.365 7.73,-10.215 11.077,-8.623c3.351,1.594 5.592,6.888 3.317,13.4l-0.015,0.032l0.356,0.136l0.997,0.387c3.013,-8.188 8.806,-9.593 12.63,-7.584c3.811,2.002 5.961,7.556 1.711,13.783l2.06,0.984c0.407,0.198 0.578,0.689 0.38,1.097c-0.198,0.408 -0.69,0.578 -1.097,0.38c-13.974,-6.788 -29.097,-12.354 -40.391,-14.424c-0.064,-0.012 -0.125,-0.03 -0.184,-0.056c-4.059,-1.79 -7.311,-1.727 -9.164,-0.225c-1.79,1.452 -2.089,4.188 -0.596,7.548c0.08,0.18 0.092,0.383 0.035,0.571c-1.403,4.644 -1.222,7.831 0.33,9.711c0.904,1.093 2.265,1.696 3.965,1.892c-0.712,-2.84 -0.993,-6.337 -0.751,-10.592c0.026,-0.452 0.414,-0.798 0.866,-0.773c0.452,0.026 0.799,0.414 0.773,0.867c-0.458,8.046 0.957,13.207 3.805,16.195c2.601,2.728 6.375,3.573 10.827,3.226c6.818,-0.531 15.179,-3.849 23.572,-7.978c-0.395,-0.659 -0.73,-1.477 -1.009,-2.503c-0.118,-0.437 0.141,-0.889 0.578,-1.007c0.437,-0.119 0.888,0.14 1.007,0.577c0.369,1.36 0.828,2.279 1.45,2.906c0.939,0.945 2.221,1.204 3.926,1.447c0.449,0.064 0.761,0.48 0.697,0.929c-0.064,0.448 -0.48,0.76 -0.929,0.696c-2.014,-0.287 -3.518,-0.69 -4.666,-1.733c-8.713,4.305 -17.423,7.751 -24.498,8.302c-1.119,0.088 -2.199,0.103 -3.232,0.035c0.532,4.904 2.479,8.441 5.766,10.38c3.547,2.092 8.581,2.323 14.909,0.579c0.317,-0.087 0.656,0.024 0.861,0.281c1.799,2.267 3.801,3.555 6.058,3.73c2.303,0.179 4.831,-0.784 7.631,-2.881c0.228,-0.17 0.527,-0.21 0.791,-0.107c7.376,2.883 13.854,0.78 17.78,-3.95c3.97,-4.782 5.335,-12.194 2.504,-19.78c-0.076,-0.204 -0.068,-0.43 0.023,-0.628c0.09,-0.198 0.256,-0.352 0.46,-0.428c2.539,-0.944 4.149,-1.942 4.952,-3.255c0.769,-1.256 0.737,-2.774 0.187,-4.713c-0.111,-0.39 0.08,-0.802 0.448,-0.971c1.778,-0.812 2.68,-2.403 2.37,-4.007c-0.333,-1.727 -1.991,-3.362 -5.115,-4.188c-0.389,-0.103 -0.647,-0.474 -0.607,-0.875c0.374,-3.773 -2.22,-6.493 -5.208,-6.09c-2.103,0.283 -4.286,2.067 -5.828,5.819c-0.096,0.234 -0.294,0.411 -0.538,0.479c-0.243,0.068 -0.505,0.02 -0.708,-0.13c-1.227,-0.905 -2.371,-1.292 -3.461,-1.172c-1.098,0.12 -2.118,0.745 -3.098,1.749c-0.317,0.324 -0.837,0.33 -1.161,0.014c-0.068,-0.067 -0.122,-0.142 -0.158,-0.224c-6.538,-2.687 -11.438,-5.484 -14.878,-8.364c-3.177,-2.659 -5.128,-5.406 -6.01,-8.209Zm12.775,28.166l0.021,-0.038c3.663,-5.215 2.189,-9.917 -0.994,-11.589c-3.202,-1.682 -7.827,-0.137 -10.342,6.738c3.763,1.5 7.566,3.143 11.315,4.889Zm-15.726,-6.598c1.173,-3.361 1.03,-6.358 0.084,-8.515c-0.588,-1.34 -1.483,-2.344 -2.558,-2.855c-1.297,-0.617 -2.837,-0.477 -4.336,0.603c-1.65,1.188 -3.22,3.442 -4.455,6.99c3.604,1.057 7.394,2.332 11.265,3.777Zm10.032,-30.623c-0.878,-1.97 -2.763,-2.917 -4.362,-2.479c-1.072,0.293 -1.958,1.226 -2.314,2.81c-0.052,0.231 -0.201,0.428 -0.408,0.541c-0.208,0.113 -0.454,0.131 -0.676,0.05c-1.174,-0.431 -1.967,-0.524 -2.573,-0.234c-0.43,0.206 -0.738,0.597 -1.036,1.098c-0.377,0.633 -0.713,1.431 -1.108,2.342c-0.093,0.214 -0.272,0.378 -0.493,0.452c-1.062,0.355 -1.763,0.962 -2.111,1.678c-0.409,0.841 -0.319,1.811 0.184,2.588c2.275,-0.875 4.788,-1.345 7.529,-1.426c0.026,-0.094 0.073,-0.182 0.136,-0.261c2.372,-2.948 4.806,-5.367 7.232,-7.159Z" style="fill:#774c29;"/><path id="Bear1" d="M115.845,107.187c-0.184,-0.087 -0.336,-0.243 -0.415,-0.448c-1.64,-4.298 -3.803,-8.065 -7.686,-10.119c-0.235,-0.124 -0.395,-0.354 -0.43,-0.618c-0.035,-0.263 0.06,-0.527 0.254,-0.708c1.556,-1.451 2.966,-2.943 3.772,-4.444c0.7,-1.302 0.927,-2.602 0.212,-3.861c-0.147,-0.26 -0.142,-0.579 0.014,-0.834c0.702,-1.146 0.92,-2.151 0.64,-3.052c-0.29,-0.935 -1.081,-1.725 -2.236,-2.443c-0.225,-0.14 -0.368,-0.38 -0.385,-0.645c-0.155,-2.416 -1.422,-4.091 -3.192,-4.619c-1.828,-0.546 -4.106,0.128 -6.159,2.242c-0.286,0.295 -0.746,0.332 -1.076,0.089c-1.505,-1.111 -2.753,-1.534 -3.849,-1.359c-1.685,0.27 -2.907,1.872 -4.045,3.984c-0.023,0.043 -0.049,0.082 -0.078,0.118c3.111,2.949 6.11,6.261 8.907,9.964l0.047,0.069l0.012,0.022c0.037,0.065 0.064,0.133 0.082,0.203c0.018,0.07 0.026,0.143 0.024,0.217l-0,0.025l-0.009,0.083l-0.016,0.083l-0.025,0.078l-0.032,0.075l-0.039,0.07l-0.045,0.066l-0.051,0.061l-0.056,0.055l-0.061,0.049l-0.082,0.052c-0.065,0.037 -0.133,0.065 -0.203,0.083c-0.07,0.017 -0.143,0.026 -0.218,0.024l-0.024,-0l-0.084,-0.009c-14.672,-2.256 -27.663,4.876 -38.201,15.089c-0.24,0.232 -0.596,0.296 -0.901,0.162c-0.306,-0.134 -0.5,-0.439 -0.491,-0.773c0.157,-6.057 -1.123,-10.344 -3.986,-12.814c-1.877,-1.62 -4.423,-2.431 -7.621,-2.482c-0.184,-0.003 -0.362,-0.068 -0.505,-0.185c-1.07,-0.872 -2.001,-1.467 -2.818,-1.784c-0.664,-0.258 -1.23,-0.328 -1.716,-0.161c-0.595,0.204 -1.035,0.743 -1.414,1.528c-0.71,1.473 -1.133,3.735 -1.406,6.684c-0.022,0.234 -0.142,0.447 -0.331,0.586c-3.131,2.303 -4.439,4.346 -4.537,6.312c-0.098,1.955 0.987,3.763 2.416,5.549c0.159,0.199 0.217,0.461 0.156,0.709c-0.513,2.077 -0.419,3.769 0.33,5.088c0.747,1.316 2.131,2.232 4.078,2.827c0.223,0.068 0.406,0.228 0.504,0.439c0.099,0.211 0.103,0.454 0.012,0.668c-3.435,8.072 -3.902,14.113 -1.209,18.165c1.768,2.661 4.891,4.41 9.311,5.331c0.437,0.091 0.722,0.516 0.639,0.956c-1.022,5.42 -0.357,9.666 2.197,12.66c2.581,3.026 7.033,4.741 13.4,5.197c0.25,0.018 0.478,0.149 0.619,0.356c2.519,3.692 5.335,6.005 8.571,6.586c3.242,0.583 6.858,-0.585 10.947,-3.674c0.202,-0.153 0.463,-0.204 0.707,-0.138c9.435,2.529 16.426,0.435 20.588,-7.055c0.129,-0.233 0.364,-0.388 0.628,-0.417c4.284,-0.467 7.332,-2.019 9.132,-4.71c1.83,-2.736 2.368,-6.597 1.73,-11.542c-0.014,-0.111 -0.006,-0.22 0.022,-0.322c-3.629,0.771 -7.724,0.926 -12.063,0.555c-7.886,-0.675 -14.743,-0.403 -27.173,-2.312c-0.15,-0.023 -0.285,-0.086 -0.395,-0.177c-0.135,0.763 -0.529,1.678 -1.19,3.17c-0.183,0.414 -0.669,0.601 -1.083,0.418c-0.414,-0.184 -0.601,-0.669 -0.418,-1.083c0.715,-1.613 1.134,-2.373 1.103,-3.139c-0.031,-0.764 -0.513,-1.496 -1.41,-3.065c-0.225,-0.393 -0.088,-0.895 0.305,-1.12c0.394,-0.225 0.896,-0.088 1.12,0.305c0.89,1.556 1.377,2.473 1.552,3.263c0.176,-0.155 0.416,-0.233 0.665,-0.195c12.38,1.901 19.21,1.627 27.064,2.299c9.367,0.802 17.57,-0.845 21.98,-6.29c2.918,-3.603 4.125,-8.853 2.959,-16.075c-0.052,-0.322 0.092,-0.644 0.367,-0.821c4.209,-2.709 5.191,-6.708 3.727,-9.289c-1.464,-2.58 -5.249,-3.459 -10.295,-0.291c-0.162,0.101 -0.354,0.143 -0.544,0.118c-4.458,-0.586 -7.127,0.185 -9.403,1.546c-13.603,8.135 -24.193,11.302 -31.395,13.789c-4.566,1.576 -7.732,2.806 -9.326,5.021c-0.265,0.368 -0.778,0.452 -1.146,0.187c-0.368,-0.265 -0.451,-0.778 -0.187,-1.146c0.705,-0.979 1.679,-1.803 2.92,-2.55c-0.124,-0.077 -0.229,-0.188 -0.298,-0.328c-4.396,-8.81 -1.276,-15.335 3.426,-17.217c4.702,-1.881 11.347,0.728 14.129,10.657c0.028,0.101 0.036,0.202 0.026,0.301c0.781,-0.294 1.583,-0.604 2.406,-0.931c-0.076,-0.074 -0.139,-0.165 -0.183,-0.269c-3.162,-7.492 -2.186,-12.874 0.329,-15.482c2.651,-2.749 7.103,-2.714 10.916,1.095c1.632,1.631 2.904,4.312 4.036,7.489l1.014,-0.571c0.412,-0.238 0.825,-0.475 1.237,-0.713l0.909,-0.537Zm-22.048,10.432c-0.103,-0.098 -0.182,-0.224 -0.223,-0.371c-2.406,-8.586 -7.872,-11.202 -11.938,-9.575c-4.066,1.626 -6.368,7.342 -2.567,14.959c0.059,0.12 0.087,0.247 0.085,0.372c1.629,-0.819 3.613,-1.569 5.947,-2.375c2.494,-0.861 5.398,-1.804 8.696,-3.01Zm17.431,-7.81c-1.06,-3.016 -2.202,-5.593 -3.74,-7.129c-3.004,-3.001 -6.484,-3.283 -8.573,-1.116c-2.226,2.308 -2.797,7.073 0.001,13.704c0.048,0.113 0.068,0.23 0.064,0.345c3.699,-1.517 7.787,-3.39 12.248,-5.804Zm-37.335,-14.676c-2.125,1.17 -4.189,2.498 -6.187,3.957c1.949,-1.504 4.018,-2.83 6.187,-3.957Zm-34.509,-3.207c-0.52,1.687 -0.76,3.584 -1.352,4.881c-0.043,0.094 -0.087,0.187 -0.133,0.278c0.24,-0.197 0.491,-0.396 0.755,-0.596c0.175,-1.766 0.414,-3.292 0.73,-4.563Zm72.443,1.186c-0.414,0.553 -0.885,1.104 -1.396,1.651c0.352,-0.181 0.635,-0.346 0.693,-0.435c0.255,-0.391 0.489,-0.798 0.703,-1.216Zm1.994,-8.065c-0.124,0.5 -0.329,1.021 -0.622,1.561c0.16,0.35 0.274,0.703 0.346,1.057c0.151,-0.861 0.258,-1.763 0.276,-2.618Zm-2.635,-5.617l-0.007,-0.009c0.002,0.023 0.005,0.047 0.008,0.071c0.039,0.027 0.078,0.053 0.116,0.08l-0.066,-0.08c-0.017,-0.02 -0.034,-0.041 -0.051,-0.062Z" style="fill:#774c29;"/><path id="Bear2-Hatpuff" serif:id="Bear2 Hatpuff" d="M171.637,223.215c-3.734,-1.362 -6.555,-1.109 -6.749,2.545c-4.635,0.504 -1.191,6.981 1.549,5.089c2.565,3.646 5.253,4.95 8.408,0.332c10.655,3.957 11.386,-9.094 1.079,-7.648l-4.287,-0.318Z" style="fill:#774c29;"/><path id="Bear3-Hatpuff" serif:id="Bear3 Hatpuff" d="M240.225,186.851c0.168,-0.083 0.336,-0.189 0.503,-0.32c0.07,0.132 0.141,0.263 0.214,0.393c0.165,0.007 0.331,0.007 0.498,0.001c0.287,-0.01 0.559,0.131 0.716,0.371c2.438,3.727 5.847,5.597 8.58,4.771c1.771,-0.536 3.156,-2.231 3.772,-5.159c0.083,-0.399 0.448,-0.676 0.854,-0.651c4.975,0.314 7.512,-2.688 7.452,-5.659c-0.06,-2.956 -2.71,-5.656 -7.797,-4.835c-0.227,0.037 -0.446,-0.023 -0.617,-0.15c-0.196,0.583 -0.395,1.149 -0.595,1.695c-0.033,0.088 -0.08,0.17 -0.14,0.242c-1.12,1.345 -2.243,1.966 -3.273,1.958c-1.06,-0.008 -2.133,-0.657 -3.093,-2.177c-0.06,-0.096 -0.1,-0.204 -0.117,-0.316c-0.109,-0.723 -0.188,-1.652 -0.251,-2.759c-0.045,-0.01 -0.09,-0.025 -0.134,-0.044c-1.694,-0.73 -3.188,-1.079 -4.428,-1.081c-1.088,-0.001 -1.962,0.261 -2.549,0.801c-0.773,0.71 -0.993,1.867 -0.677,3.328c0.078,0.359 -0.091,0.725 -0.415,0.898c-2.383,1.275 -3.295,2.917 -3.12,4.482c0.227,2.045 2.183,3.824 4.617,4.211Zm15.768,1.071l-0.038,-0c-0.011,0.042 -0.022,0.083 -0.034,0.124l0.056,-0.097l0.016,-0.027Z" style="fill:#774c29;"/><path id="Bear1-Hatpuff" serif:id="Bear1 Hatpuff" d="M38.488,156.024c-0.183,1.865 -0.571,4.68 -1.282,5.451c-2.063,2.236 -3.63,-3.374 -4.563,-5.344c-0.097,0.442 -0.464,0.794 -0.938,0.852c-1.405,0.169 -2.573,0.375 -3.478,0.704c-0.679,0.248 -1.191,0.54 -1.458,1.014c-0.392,0.694 -0.247,1.653 0.249,3.031c0.169,0.472 -0.003,0.998 -0.418,1.278c-1.15,0.777 -1.654,1.853 -1.496,2.855c0.157,0.996 0.956,1.854 2.224,2.222c0.361,0.105 0.643,0.388 0.747,0.75c0.444,1.556 1.18,2.525 2.141,2.903c0.937,0.369 2.026,0.153 3.095,-0.451c0.125,-0.071 0.262,-0.116 0.403,-0.134l3.311,-0.414c0.379,-0.047 0.756,0.107 0.993,0.406c0.628,0.792 1.386,1.202 2.139,0.977c0.895,-0.268 1.639,-1.259 2.169,-2.908c0.143,-0.446 0.556,-0.752 1.025,-0.759c0.963,-0.015 1.736,-0.119 2.313,-0.341c0.355,-0.136 0.621,-0.3 0.74,-0.564c0.132,-0.295 0.083,-0.66 -0.049,-1.098c-0.199,-0.656 -0.605,-1.414 -1.201,-2.285c-0.167,-0.243 -0.228,-0.544 -0.17,-0.833c0.428,-2.133 0.2,-3.793 -0.798,-4.976c-1.04,-1.232 -2.833,-1.917 -5.29,-2.205c-0.148,-0.017 -0.286,-0.063 -0.408,-0.131Z" style="fill:#774c29;"/><path id="Bear1-Hat" serif:id="Bear1 Hat" d="M97.574,89.865c-13.92,-17.512 -32.404,-25.621 -44.481,-27.802c-5.129,-0.926 -9.059,-0.819 -10.878,0.184c-2.596,1.431 -3.953,4.199 -4.895,7.993c-1.508,6.073 -1.881,14.69 -3.696,24.969c-0.032,0.18 -0.122,0.344 -0.258,0.466c-6.731,6.091 -10.382,11.453 -11.833,16.887c-1.444,5.412 -0.697,10.876 1.272,17.16c2.644,8.438 7.48,18.313 12.377,31.383c-0,0 1.637,-0.468 1.637,-0.468l2.629,-23.66c0.007,-0.063 0.021,-0.123 0.042,-0.18c-1.941,-4.19 -1.488,-10.001 1.542,-17.444c-1.967,-0.75 -3.355,-1.857 -4.171,-3.294c-0.88,-1.549 -1.109,-3.507 -0.589,-5.897c-1.568,-2.03 -2.637,-4.127 -2.526,-6.342c0.113,-2.256 1.435,-4.699 4.908,-7.331c0.3,-3.023 0.786,-5.345 1.527,-6.882c0.609,-1.261 1.405,-2.04 2.36,-2.368c1.426,-0.49 3.37,0.057 5.882,2.048c3.511,0.104 6.3,1.077 8.383,2.874c2.849,2.457 4.403,6.503 4.556,12.171c10.171,-9.404 22.463,-15.841 36.212,-14.467Z" style="fill:#ffe732;"/><path id="Bear2-Hat" serif:id="Bear2 Hat" d="M172.08,209.495c0.291,0.094 0.516,0.35 0.557,0.673c1.204,9.538 0.519,9.453 0.049,12.41c-0,0 2.668,0.227 2.668,0.227c20.991,-23.814 20.529,-48.308 10.742,-60.926c-6.421,-8.277 -16.876,-11.314 -27.71,-5.428c-0.388,0.211 -0.873,0.077 -1.098,-0.302c-2.57,-4.328 -5.575,-6.466 -8.857,-6.724c-4.94,-0.388 -10.341,3.354 -15.549,9.7c0.1,0.135 0.157,0.303 0.156,0.483c-0.001,0.118 -0.027,0.229 -0.073,0.329c0.797,2.547 2.603,5.023 5.495,7.444c3.355,2.808 8.148,5.522 14.54,8.142c1.116,-0.983 2.294,-1.556 3.521,-1.691c1.194,-0.131 2.452,0.146 3.77,0.922c1.832,-3.856 4.383,-5.597 6.726,-5.913c3.761,-0.507 7.218,2.586 7.103,7.193c3.509,1.108 5.261,3.22 5.658,5.276c0.407,2.108 -0.558,4.249 -2.682,5.491c0.512,2.171 0.361,3.906 -0.534,5.368c-0.866,1.415 -2.473,2.599 -5.026,3.642c1.642,4.84 1.696,9.583 0.544,13.684Z" style="fill:#ffe732;"/><path id="Bear3-Hat" serif:id="Bear3 Hat" d="M246.228,143.167c2.447,14.623 1.861,28.454 2.553,33.431c0.529,0.805 1.035,1.264 1.624,1.269c0.625,0.004 1.233,-0.47 1.908,-1.26c7.529,-20.665 13.427,-69.696 21.587,-88.983c-8.473,-8.706 -22.815,-27.228 -39.427,-34.744c-6.998,-3.165 -13.749,-4.396 -18.611,-3.457c-2.284,0.441 -4.136,1.361 -5.337,2.826c-1.188,1.449 -1.716,3.422 -1.448,5.924c0.031,0.283 -0.087,0.561 -0.312,0.735c-0.224,0.175 -0.522,0.221 -0.789,0.122c-7.203,-2.666 -15.577,-1.44 -21.297,3.74c-3.748,3.394 -6.343,8.483 -6.751,15.263c7.057,5.738 24.486,15.652 49.306,12.663c-0.487,-1.155 -0.673,-2.729 -0.473,-4.444c0.606,-5.212 4.603,-11.699 12.905,-10.545c4.605,-2.368 8.482,-2.234 11.265,-0.735c4.169,2.246 5.986,7.637 4.147,12.879c2.497,2.798 3.67,5.858 3.119,8.7c-0.511,2.634 -2.512,5.152 -6.506,7.103c7.13,4.578 7.15,13.629 4.531,18.575c-0.93,1.755 -2.198,2.984 -3.584,3.451c2.089,2.679 2.786,5.734 1.701,8.729c-1.132,3.128 -4.287,6.253 -10.111,8.758Z" style="fill:#ffe732;"/><path id="Bear1-Eye" serif:id="Bear1 Eye" d="M93.797,117.619c-0.103,-0.098 -0.182,-0.224 -0.223,-0.371c-2.406,-8.586 -7.872,-11.202 -11.938,-9.575c-4.066,1.626 -6.368,7.342 -2.567,14.959c0.059,0.12 0.087,0.247 0.085,0.372c1.629,-0.819 3.613,-1.569 5.947,-2.375c2.494,-0.861 5.398,-1.804 8.696,-3.01Z" style="fill:#fff;"/><path id="Bear1-Eye1" serif:id="Bear1 Eye" d="M111.228,109.809c-1.06,-3.016 -2.202,-5.593 -3.74,-7.129c-3.004,-3.001 -6.484,-3.283 -8.573,-1.116c-2.226,2.308 -2.797,7.073 0.001,13.704c0.048,0.113 0.068,0.23 0.064,0.345c3.699,-1.517 7.787,-3.39 12.248,-5.804Z" style="fill:#fff;"/><path id="Bear2-Eye" serif:id="Bear2 Eye" d="M128.445,181.998c1.173,-3.361 1.03,-6.358 0.084,-8.515c-0.588,-1.34 -1.483,-2.344 -2.558,-2.855c-1.297,-0.617 -2.837,-0.477 -4.336,0.603c-1.65,1.188 -3.22,3.442 -4.455,6.99c3.604,1.057 7.394,2.332 11.265,3.777Z" style="fill:#fff;"/><path id="Bear2-Eye1" serif:id="Bear2 Eye" d="M144.171,188.596l0.021,-0.038c3.663,-5.215 2.189,-9.917 -0.994,-11.589c-3.202,-1.682 -7.827,-0.137 -10.342,6.738c3.763,1.5 7.566,3.143 11.315,4.889Z" style="fill:#fff;"/><path id="Bear3-Eye" serif:id="Bear3 Eye" d="M190.929,109.927c0.592,-8.933 -6.086,-14.37 -11.696,-13.055c-3.768,0.883 -6.859,4.824 -6.981,12.574c-0.001,0.05 -0.006,0.099 -0.016,0.146c6.46,-0.312 12.802,-0.163 18.693,0.335Z" style="fill:#fff;"/><path id="Bear3-Eye1" serif:id="Bear3 Eye" d="M214.961,114.772c0.003,-0.056 0.012,-0.112 0.028,-0.169c2.779,-9.992 -3.715,-16.846 -9.58,-16.172c-3.862,0.443 -7.198,4.21 -7.402,12.29c6.775,0.954 12.64,2.376 16.954,4.051Z" style="fill:#fff;"/><g id="Bear1-Black-fill" serif:id="Bear1 Black fill"><path d="M82.621,121.898c-0,-0 -3.643,-6.598 1.165,-9.52c4.809,-2.922 8.659,6.482 8.659,6.482l-9.824,3.038Z"/><path d="M102.534,115.393c0,-0 -5.501,-6.997 -0.693,-9.918c4.809,-2.922 7.464,6.349 7.464,6.349l-6.771,3.569Z"/><path d="M49.575,113.481c1.534,-2.776 3.707,-4.052 5.793,-5.173c0.017,-4.026 -1.741,-7.56 -3.931,-8.276c-4.673,-5.116 -6.776,-3.78 -7.035,1.035c-4.184,4.194 -3.419,7.026 -1.265,7.944c4.012,1.711 6.808,2.556 6.438,4.47Z"/><path d="M104.219,84.276c0.758,2.45 0.438,5.338 0.133,7.434c3.011,-0.04 5.446,-1.726 2.788,-6.372c-0.279,-3.825 -1.571,-2.59 -2.921,-1.062Z"/><path d="M126.563,106.11c-0.292,1.264 -8.459,-2.701 -10.488,3.186c-2.869,8.326 9.987,12.128 18.188,8.231c7.834,-3.723 5.85,-19.343 -7.7,-11.417Z" style="fill:#0e0600;"/></g><g id="Bear1-Satin" serif:id="Bear1 Satin"><path d="M31.574,155.896c-5.013,0.604 -7.194,1.74 -5.586,6.207c-3.139,2.119 -2.447,6.024 1.034,7.035c1.128,3.944 4.046,4.677 6.828,3.103l3.311,-0.414c1.907,2.406 4.851,1.94 6.207,-2.276c4.483,-0.068 5.379,-2.069 2.689,-6c1.018,-5.069 -1.431,-7.828 -7.034,-8.483" style="fill:none;stroke:#000;stroke-width:2px;"/><path d="M90.541,79.963c2.138,-3.967 4.759,-6.105 9.104,-2.897c4.638,-4.776 10.397,-2.741 10.759,2.897c2.707,1.685 3.569,3.832 1.862,6.621c1.723,3.034 -0.883,6.276 -4.138,9.31c4.059,2.148 6.355,6.06 8.069,10.552" style="fill:none;stroke:#000;stroke-width:2px;"/><path d="M78.334,122.998c-8.195,-16.425 10.843,-24.485 16.03,-5.971" style="fill:none;stroke:#000;stroke-width:1.5px;"/><path d="M98.16,115.587c-5.959,-14.122 3.093,-20.297 9.908,-13.487c1.611,1.609 2.833,4.299 3.943,7.461" style="fill:none;stroke:#000;stroke-width:1.5px;"/><path d="M99.438,90.929c-20.283,-26.851 -51.252,-32.912 -57.619,-29.401c-6.943,3.827 -5.972,16.369 -9.003,33.539c-22.944,20.759 -10.621,33.431 1.862,67.036l2.896,-0.828l2.69,-24.207" style="fill:none;stroke:#000;stroke-width:2px;"/><path d="M99.438,90.929c-14.932,-2.296 -28.172,4.916 -38.897,15.31c0.275,-10.621 -3.863,-16 -12.415,-16.138c-5.759,-4.697 -7.899,-1.714 -8.689,6.828c-6.825,5.019 -5.406,9.122 -2.276,13.035c-1.147,4.646 0.594,7.56 4.965,8.896c-5.965,14.023 -3,22.185 8.69,24.622c-2.155,11.435 3.052,17.875 16.345,18.828c5.332,7.815 12.048,9.634 20.691,3.103c9.872,2.647 17.163,0.389 21.517,-7.448c9.145,-0.998 12.925,-6.795 11.587,-17.173" style="fill:none;stroke:#000;stroke-width:2px;"/><path d="M75.644,126.723c4.171,-5.795 18.407,-5.543 40.967,-19.035c2.405,-1.439 5.221,-2.275 9.931,-1.656c11.23,-7.049 16.809,4.944 7.449,10.966c3.032,18.794 -9.687,24.694 -25.82,23.314c-7.87,-0.673 -14.714,-0.401 -27.118,-2.306" style="fill:none;stroke:#000;stroke-width:2px;"/><path d="M78.248,134.535c1.998,3.495 1.932,3.36 0.345,6.943" style="fill:none;stroke:#000;stroke-width:2px;"/></g><g id="Bear2-Black-Fill" serif:id="Bear2 Black Fill"><path d="M169.659,178.72c-3.051,-2.652 -8.816,2.669 -8.703,5.938c2.848,1.42 5.96,3.318 8.021,6.508c2.106,-2.511 1.498,-5.54 -0.332,-7.854c2.168,-1.291 1.996,-3.738 1.014,-4.592Z"/><path d="M95.773,183.865c0.42,2.088 4.104,3.264 5.809,1.751c11.061,6.082 14.821,-2.569 10.878,-8.389l-6.545,-1.014c-9.382,-3.178 -11.579,0.502 -10.142,7.652Z"/><path d="M134.718,184.879c4.034,-11.179 12.208,-4.203 8.297,3.503l-8.297,-3.503Z"/><path d="M119.322,179.163c3.794,-10.34 11.034,-3.873 7.375,2.95l-7.375,-2.95Z"/></g><g id="Bear2-Satin" serif:id="Bear2 Satin"><path d="M123.366,161.261c-1.77,-1.797 -1.401,-4.987 1.881,-6.084c1.369,-3.16 2.097,-4.99 5.753,-3.651c1.097,-4.879 6.573,-4.488 8.297,-0.332" style="fill:none;stroke:#000;stroke-width:2px;"/><path d="M132.217,159.602c-10.3,-0.078 -17.396,5.277 -20.91,16.705" style="fill:none;stroke:#000;stroke-width:2px;"/><path d="M171.637,223.215c-3.734,-1.362 -6.555,-1.109 -6.749,2.545c-4.635,0.504 -1.191,6.981 1.549,5.089c2.565,3.646 5.253,4.95 8.408,0.332c10.655,3.957 11.386,-9.094 1.079,-7.648" style="fill:none;stroke:#000;stroke-width:2px;"/><path d="M116.321,178.188c5.285,-15.583 17.09,-7.917 12.897,4.086" style="fill:none;stroke:#000;stroke-width:1.5px;"/><path d="M132.082,183.434c5.523,-15.114 20.876,-5.929 12.782,5.596" style="fill:none;stroke:#000;stroke-width:1.5px;"/><path d="M112.524,206.51c0.806,11.409 8.598,16.248 21.795,12.612c3.931,4.951 8.828,5.485 14.824,0.995c15.531,6.071 27.248,-8.983 21.352,-24.781c5.534,-2.058 6.896,-4.543 5.642,-8.961c4.329,-1.979 4.19,-7.867 -2.876,-9.736c0.723,-7.296 -8.377,-10.972 -12.612,-0.664c-2.855,-2.105 -5.369,-1.655 -7.634,0.664" style="fill:none;stroke:#000;stroke-width:2px;"/><path d="M147.373,191.021c-14.045,-6.822 -29.248,-12.412 -40.602,-14.492c-8.869,-3.909 -14.216,0.811 -10.841,8.408c-2.524,8.349 0.052,12.319 5.494,12.704" style="fill:none;stroke:#000;stroke-width:2px;"/><path d="M101.079,186.232c-1.585,27.868 19.295,22.212 40.094,11.879" style="fill:none;stroke:#000;stroke-width:2px;"/><path d="M139.886,195.004c1.041,3.838 2.859,4.495 6.052,4.951" style="fill:none;stroke:#000;stroke-width:2px;"/><path d="M153.015,176.418c-13.303,-5.406 -19.873,-11.225 -21.13,-17.369c9.219,-11.462 19.25,-14.87 26.109,-3.319c28.104,-15.269 53.737,27.413 17.701,67.928l-3.94,-0.335c0.446,-3.825 1.356,-2.847 0.068,-13.052" style="fill:none;stroke:#000;stroke-width:2px;"/></g><g id="Bear3-Black-Fill" serif:id="Bear3 Black Fill"><path d="M238.528,92.397c4.1,1.735 7.01,4.066 9.47,6.621c1.489,-1.4 2.327,-2.799 0.807,-4.199c4.081,0.784 5.962,-2.259 1.819,-4.325c0.487,-2.776 -0.359,-3.744 -1.785,-3.923c-0.657,-7.724 -7.997,-3.728 -10.311,5.826Z"/><path d="M167.92,114.724c-13.619,-10.632 -19.922,0.427 -13.08,7.927c3.637,0.514 7.802,1.628 11.705,5.877l4.926,-2.5c15.437,4.248 15.33,-16.755 -3.551,-11.304Z"/><path d="M201.032,111.537l11.104,2.321c1.394,-14.595 -10.522,-15.658 -11.104,-2.321Z"/><path d="M175.583,110.337l11.104,0.16c1.634,-12.755 -11.938,-14.368 -11.104,-0.16Z"/></g><g id="Bear3-Satin" serif:id="Bear3 Satin"><path d="M165.647,84.132c-2.762,-1.607 -3.928,-5.812 -0.284,-8.247c-0.395,-3.937 -1.068,-7.545 4.798,-7.485c-0.286,-6.327 7.549,-6.569 11.042,-2.065" style="fill:none;stroke:#000;stroke-width:2px;"/><path d="M179.316,78.609c-13.108,-0.666 -16.499,11.651 -14.653,17.188c-2.275,0.612 -5.262,9.189 -2.445,14.336" style="fill:none;stroke:#000;stroke-width:2px;"/><path d="M247.122,173.458c-6.054,-2.609 -9.762,-0.552 -8.781,3.976c-6.957,3.721 -2.584,10.519 3.128,10.312c4.465,6.827 12.103,7.604 13.842,-0.669c11.227,0.707 11.111,-13.986 -0.425,-12.124" style="fill:none;stroke:#000;stroke-width:2px;"/><path d="M171.431,109.433c0.326,-20.717 21.436,-15.451 20.313,0.613" style="fill:none;stroke:#000;stroke-width:1.5px;"/><path d="M197.178,110.976c0.372,-22.167 23.565,-13.996 18.602,3.847" style="fill:none;stroke:#000;stroke-width:1.5px;"/><path d="M177.376,143.75c6.857,11.834 16.736,14.263 29.395,7.424c4.293,6.179 18.198,7.72 24.027,0.235c10.511,1.707 12.617,-1.443 14.019,-8.548c12.469,-4.914 13.479,-12.427 8.163,-17.825c5.839,0.844 10.431,-15.786 -1.113,-21.469c9.326,-3.769 9.316,-10.179 4.266,-15.532c3.275,-8.283 -3.334,-17.306 -14.323,-11.477c-11.272,-1.773 -14.142,11.501 -11.274,14.73" style="fill:none;stroke:#000;stroke-width:2px;"/><path d="M219.115,117.708c-8.258,-5.289 -31.542,-9.181 -54.623,-6.692c-9.649,-1.645 -14.779,2.98 -8.363,12.337c-0.299,11.044 4.612,16.227 11.39,14.882" style="fill:none;stroke:#000;stroke-width:2px;"/><path d="M166.213,127.746c-5.712,19.006 27.926,21.24 39.947,1.592" style="fill:none;stroke:#000;stroke-width:2px;"/><path d="M201.93,126.691c4.353,3.442 8.594,2.919 12.648,2.411" style="fill:none;stroke:#000;stroke-width:2px;"/><path d="M230.191,91.405c-25.981,3.411 -44.099,-7.174 -51.105,-13.001c0.846,-18.105 16.698,-24.763 29.175,-20.143c-1.183,-11.048 12.187,-12.626 26.55,-6.129c16.963,7.674 31.595,26.735 40.061,35.31c-8.289,18.949 -14.222,68.825 -21.838,89.583c-1.829,2.198 -3.518,2.28 -5.04,-0.132c-0.73,-4.823 -0.1,-18.804 -2.577,-33.595" style="fill:none;stroke:#000;stroke-width:2px;"/></g><path d="M270.156,104.342c9.785,12.851 14.74,27.113 14.654,42.465c-0.29,51.705 -63.621,93.328 -141.336,92.892c-77.715,-0.437 -140.574,-42.769 -140.284,-94.473c0.122,-21.779 11.428,-41.768 30.282,-57.579" style="fill:none;stroke:#000;stroke-width:3px;"/><path d="M69.635,66.034c21.893,-9.151 47.077,-13.857 74.891,-13.701c16.895,0.095 32.3,1.908 47.301,5.63" style="fill:none;stroke:#000;stroke-width:3px;"/></g></svg>